<svg width="556" height="95" viewBox="0 0 556 95" fill="none" xmlns="http://www.w3.org/2000/svg">
<path d="M34 63C50.0163 63 63 50.0163 63 34C63 17.9837 50.0163 5 34 5C17.9837 5 5 17.9837 5 34C5 50.0163 17.9837 63 34 63Z" stroke="#FC6868" stroke-width="10" stroke-linecap="round" stroke-linejoin="round"/>
<path d="M61 90C77.0163 90 90 77.0163 90 61C90 44.9837 77.0163 32 61 32C44.9837 32 32 44.9837 32 61C32 77.0163 44.9837 90 61 90Z" stroke="#FC6868" stroke-width="10" stroke-linecap="round" stroke-linejoin="round"/>
<path d="M123.531 72H112.176L112.246 62.5078H123.531C125.875 62.5078 127.855 61.9453 129.473 60.8203C131.113 59.6953 132.355 58.0195 133.199 55.793C134.066 53.543 134.5 50.7773 134.5 47.4961V45.2812C134.5 42.8203 134.254 40.6641 133.762 38.8125C133.293 36.9375 132.59 35.3789 131.652 34.1367C130.715 32.8711 129.543 31.9219 128.137 31.2891C126.754 30.6562 125.16 30.3398 123.355 30.3398H111.965V20.8125H123.355C126.824 20.8125 130 21.4102 132.883 22.6055C135.789 23.7773 138.297 25.4648 140.406 27.668C142.539 29.8477 144.18 32.4375 145.328 35.4375C146.5 38.4141 147.086 41.7188 147.086 45.3516V47.4961C147.086 51.1055 146.5 54.4102 145.328 57.4102C144.18 60.4102 142.551 63 140.441 65.1797C138.332 67.3594 135.836 69.0469 132.953 70.2422C130.094 71.4141 126.953 72 123.531 72ZM119.242 20.8125V72H106.902V20.8125H119.242ZM171.379 72.7031C168.285 72.7031 165.52 72.2227 163.082 71.2617C160.645 70.2773 158.582 68.9297 156.895 67.2188C155.23 65.5078 153.953 63.5391 153.062 61.3125C152.195 59.0859 151.762 56.7305 151.762 54.2461V52.9102C151.762 50.1211 152.148 47.543 152.922 45.1758C153.695 42.7852 154.844 40.6992 156.367 38.918C157.891 37.1367 159.801 35.7539 162.098 34.7695C164.395 33.7617 167.066 33.2578 170.113 33.2578C172.809 33.2578 175.223 33.6914 177.355 34.5586C179.488 35.4258 181.293 36.668 182.77 38.2852C184.27 39.9023 185.406 41.8594 186.18 44.1562C186.977 46.4531 187.375 49.0312 187.375 51.8906V56.707H156.297V49.2891H175.809V48.375C175.832 47.1094 175.609 46.0312 175.141 45.1406C174.695 44.25 174.039 43.5703 173.172 43.1016C172.305 42.6328 171.25 42.3984 170.008 42.3984C168.719 42.3984 167.652 42.6797 166.809 43.2422C165.988 43.8047 165.344 44.5781 164.875 45.5625C164.43 46.5234 164.113 47.6367 163.926 48.9023C163.738 50.168 163.645 51.5039 163.645 52.9102V54.2461C163.645 55.6523 163.832 56.9297 164.207 58.0781C164.605 59.2266 165.168 60.2109 165.895 61.0312C166.645 61.8281 167.535 62.4492 168.566 62.8945C169.621 63.3398 170.816 63.5625 172.152 63.5625C173.77 63.5625 175.363 63.2578 176.934 62.6484C178.504 62.0391 179.852 61.0312 180.977 59.625L186.355 66.0234C185.582 67.125 184.48 68.1914 183.051 69.2227C181.645 70.2539 179.957 71.0977 177.988 71.7539C176.02 72.3867 173.816 72.7031 171.379 72.7031ZM212.125 61.3125C212.125 60.6562 211.902 60.0938 211.457 59.625C211.035 59.1328 210.285 58.6875 209.207 58.2891C208.129 57.8672 206.617 57.4453 204.672 57.0234C202.82 56.625 201.074 56.0977 199.434 55.4414C197.816 54.7852 196.398 53.9883 195.18 53.0508C193.961 52.1133 193 51 192.297 49.7109C191.617 48.4219 191.277 46.9453 191.277 45.2812C191.277 43.6641 191.617 42.1406 192.297 40.7109C193 39.2578 194.02 37.9805 195.355 36.8789C196.715 35.7539 198.367 34.875 200.312 34.2422C202.258 33.5859 204.473 33.2578 206.957 33.2578C210.379 33.2578 213.332 33.7852 215.816 34.8398C218.301 35.8711 220.211 37.3242 221.547 39.1992C222.906 41.0508 223.586 43.1953 223.586 45.6328H211.738C211.738 44.6719 211.574 43.8516 211.246 43.1719C210.941 42.4922 210.438 41.9766 209.734 41.625C209.031 41.25 208.094 41.0625 206.922 41.0625C206.102 41.0625 205.352 41.2148 204.672 41.5195C204.016 41.8242 203.488 42.2461 203.09 42.7852C202.691 43.3242 202.492 43.957 202.492 44.6836C202.492 45.1992 202.609 45.668 202.844 46.0898C203.102 46.4883 203.488 46.8633 204.004 47.2148C204.52 47.543 205.176 47.8477 205.973 48.1289C206.77 48.3867 207.73 48.6211 208.855 48.832C211.41 49.3008 213.801 49.9688 216.027 50.8359C218.254 51.7031 220.059 52.9336 221.441 54.5273C222.848 56.1211 223.551 58.2656 223.551 60.9609C223.551 62.6484 223.164 64.207 222.391 65.6367C221.617 67.043 220.504 68.2852 219.051 69.3633C217.598 70.418 215.852 71.2383 213.812 71.8242C211.773 72.4102 209.477 72.7031 206.922 72.7031C203.289 72.7031 200.219 72.0586 197.711 70.7695C195.203 69.457 193.305 67.8164 192.016 65.8477C190.75 63.8555 190.117 61.8398 190.117 59.8008H201.156C201.203 60.9727 201.484 61.9336 202 62.6836C202.539 63.4336 203.254 63.9844 204.145 64.3359C205.035 64.6875 206.066 64.8633 207.238 64.8633C208.316 64.8633 209.207 64.7109 209.91 64.4062C210.637 64.1016 211.188 63.6914 211.562 63.1758C211.938 62.6367 212.125 62.0156 212.125 61.3125ZM241.621 33.9609V72H229.738V33.9609H241.621ZM229.035 24.1523C229.035 22.4648 229.645 21.082 230.863 20.0039C232.082 18.9258 233.664 18.3867 235.609 18.3867C237.555 18.3867 239.137 18.9258 240.355 20.0039C241.574 21.082 242.184 22.4648 242.184 24.1523C242.184 25.8398 241.574 27.2227 240.355 28.3008C239.137 29.3789 237.555 29.918 235.609 29.918C233.664 29.918 232.082 29.3789 230.863 28.3008C229.645 27.2227 229.035 25.8398 229.035 24.1523ZM272.84 33.9609H283.598V70.5234C283.598 74.0391 282.789 77.0156 281.172 79.4531C279.555 81.9141 277.293 83.7773 274.387 85.043C271.504 86.332 268.129 86.9766 264.262 86.9766C262.551 86.9766 260.805 86.7539 259.023 86.3086C257.242 85.8867 255.578 85.2539 254.031 84.4102C252.484 83.5664 251.184 82.5234 250.129 81.2812L255.086 74.3203C256.047 75.3984 257.254 76.3125 258.707 77.0625C260.16 77.8359 261.871 78.2227 263.84 78.2227C265.551 78.2227 266.98 77.918 268.129 77.3086C269.301 76.6992 270.191 75.8086 270.801 74.6367C271.41 73.4883 271.715 72.0938 271.715 70.4531V42.9609L272.84 33.9609ZM247.562 53.4375V52.6992C247.562 49.8164 247.914 47.1914 248.617 44.8242C249.344 42.4336 250.375 40.3828 251.711 38.6719C253.07 36.9375 254.711 35.6016 256.633 34.6641C258.555 33.7266 260.723 33.2578 263.137 33.2578C265.738 33.2578 267.871 33.7617 269.535 34.7695C271.223 35.7539 272.57 37.1367 273.578 38.918C274.609 40.6992 275.406 42.7852 275.969 45.1758C276.555 47.543 277.047 50.0977 277.445 52.8398V53.7188C277.047 56.2969 276.496 58.7344 275.793 61.0312C275.113 63.3047 274.223 65.3203 273.121 67.0781C272.02 68.8359 270.637 70.2188 268.973 71.2266C267.332 72.2109 265.363 72.7031 263.066 72.7031C260.676 72.7031 258.52 72.2227 256.598 71.2617C254.699 70.3008 253.07 68.9531 251.711 67.2188C250.375 65.4844 249.344 63.4453 248.617 61.1016C247.914 58.7578 247.562 56.2031 247.562 53.4375ZM259.41 52.6992V53.4375C259.41 54.8672 259.539 56.1914 259.797 57.4102C260.078 58.6289 260.5 59.707 261.062 60.6445C261.625 61.5586 262.316 62.2734 263.137 62.7891C263.98 63.3047 264.965 63.5625 266.09 63.5625C267.801 63.5625 269.184 63.1992 270.238 62.4727C271.293 61.7461 272.055 60.7148 272.523 59.3789C272.992 58.043 273.191 56.4727 273.121 54.668V51.8906C273.168 50.3438 273.062 48.9844 272.805 47.8125C272.547 46.6172 272.137 45.6211 271.574 44.8242C271.035 44.0273 270.309 43.4297 269.395 43.0312C268.504 42.6094 267.426 42.3984 266.16 42.3984C265.059 42.3984 264.086 42.6562 263.242 43.1719C262.398 43.6875 261.695 44.4141 261.133 45.3516C260.57 46.2656 260.137 47.3555 259.832 48.6211C259.551 49.8633 259.41 51.2227 259.41 52.6992ZM302.055 42.082V72H290.207V33.9609H301.316L302.055 42.082ZM300.648 51.6797L297.871 51.75C297.871 48.8438 298.223 46.2539 298.926 43.9805C299.629 41.6836 300.625 39.7383 301.914 38.1445C303.203 36.5508 304.738 35.3438 306.52 34.5234C308.324 33.6797 310.328 33.2578 312.531 33.2578C314.289 33.2578 315.895 33.5156 317.348 34.0312C318.824 34.5469 320.09 35.3789 321.145 36.5273C322.223 37.6758 323.043 39.1992 323.605 41.0977C324.191 42.9727 324.484 45.293 324.484 48.0586V72H312.566V48.0234C312.566 46.5 312.355 45.3398 311.934 44.543C311.512 43.7227 310.902 43.1602 310.105 42.8555C309.309 42.5508 308.336 42.3984 307.188 42.3984C305.969 42.3984 304.938 42.6328 304.094 43.1016C303.25 43.5703 302.57 44.2266 302.055 45.0703C301.562 45.8906 301.199 46.8633 300.965 47.9883C300.754 49.1133 300.648 50.3438 300.648 51.6797ZM493.41 70.2773C493.41 69.7383 493.598 69.2812 493.973 68.9062C494.348 68.5078 494.805 68.3086 495.344 68.3086C495.883 68.3086 496.34 68.4961 496.715 68.8711C497.113 69.2461 497.312 69.7148 497.312 70.2773C497.312 70.8164 497.113 71.2734 496.715 71.6484C496.34 72.0234 495.883 72.2109 495.344 72.2109C494.805 72.2109 494.348 72.0234 493.973 71.6484C493.598 71.2734 493.41 70.8164 493.41 70.2773ZM510.25 33.9609H512.148V76.5352C512.148 78.8555 511.75 80.8242 510.953 82.4414C510.156 84.0586 509.008 85.2773 507.508 86.0977C506.031 86.9414 504.238 87.3633 502.129 87.3633C501.543 87.3633 500.969 87.3047 500.406 87.1875C499.82 87.0703 499.246 86.8945 498.684 86.6602L498.789 84.832C499.164 84.9727 499.656 85.1133 500.266 85.2539C500.852 85.3945 501.473 85.4648 502.129 85.4648C503.863 85.4648 505.328 85.1133 506.523 84.4102C507.742 83.707 508.668 82.6875 509.301 81.3516C509.934 80.0156 510.25 78.4102 510.25 76.5352V33.9609ZM509.441 22.0781C509.441 21.5391 509.629 21.082 510.004 20.707C510.379 20.3086 510.836 20.1094 511.375 20.1094C511.914 20.1094 512.371 20.3086 512.746 20.707C513.145 21.082 513.344 21.5391 513.344 22.0781C513.344 22.6172 513.145 23.0742 512.746 23.4492C512.371 23.8242 511.914 24.0117 511.375 24.0117C510.836 24.0117 510.379 23.8242 510.004 23.4492C509.629 23.0742 509.441 22.6172 509.441 22.0781ZM548.887 62.6836C548.887 61.5352 548.57 60.375 547.938 59.2031C547.305 58.0078 546.156 56.8945 544.492 55.8633C542.828 54.832 540.426 53.9766 537.285 53.2969C535.152 52.8281 533.277 52.3125 531.66 51.75C530.066 51.1875 528.73 50.5195 527.652 49.7461C526.574 48.9492 525.766 47.9883 525.227 46.8633C524.688 45.7383 524.418 44.4023 524.418 42.8555C524.418 41.5195 524.699 40.2773 525.262 39.1289C525.848 37.957 526.691 36.9375 527.793 36.0703C528.895 35.1797 530.23 34.4883 531.801 33.9961C533.371 33.5039 535.152 33.2578 537.145 33.2578C539.98 33.2578 542.406 33.7148 544.422 34.6289C546.461 35.543 548.02 36.8203 549.098 38.4609C550.199 40.0781 550.75 41.9648 550.75 44.1211H548.816C548.816 42.5508 548.359 41.0859 547.445 39.7266C546.555 38.3672 545.242 37.2656 543.508 36.4219C541.773 35.5781 539.652 35.1562 537.145 35.1562C534.59 35.1562 532.516 35.543 530.922 36.3164C529.328 37.0898 528.156 38.0625 527.406 39.2344C526.68 40.4062 526.316 41.5898 526.316 42.7852C526.316 43.7695 526.457 44.6836 526.738 45.5273C527.02 46.3477 527.559 47.1211 528.355 47.8477C529.176 48.5508 530.348 49.2188 531.871 49.8516C533.395 50.4844 535.387 51.082 537.848 51.6445C540.871 52.3242 543.332 53.1445 545.23 54.1055C547.129 55.0664 548.523 56.25 549.414 57.6562C550.328 59.0391 550.785 60.7266 550.785 62.7188C550.785 64.1953 550.469 65.543 549.836 66.7617C549.227 67.9805 548.336 69.0352 547.164 69.9258C546.016 70.8164 544.609 71.5078 542.945 72C541.305 72.4688 539.465 72.7031 537.426 72.7031C534.355 72.7031 531.754 72.2344 529.621 71.2969C527.512 70.3359 525.906 69.0703 524.805 67.5C523.727 65.9062 523.188 64.1836 523.188 62.332H525.086C525.25 64.5117 525.965 66.2227 527.23 67.4648C528.52 68.6836 530.078 69.5508 531.906 70.0664C533.758 70.5586 535.598 70.8047 537.426 70.8047C539.934 70.8047 542.031 70.4062 543.719 69.6094C545.43 68.8125 546.719 67.793 547.586 66.5508C548.453 65.2852 548.887 63.9961 548.887 62.6836Z" fill="black"/>
<path d="M357.988 58.3945C357.988 57.5977 357.871 56.8828 357.637 56.25C357.402 55.5938 356.969 54.9844 356.336 54.4219C355.703 53.8594 354.789 53.2969 353.594 52.7344C352.422 52.1484 350.875 51.5391 348.953 50.9062C346.703 50.1562 344.535 49.3125 342.449 48.375C340.363 47.4141 338.5 46.3008 336.859 45.0352C335.219 43.7461 333.918 42.2461 332.957 40.5352C331.996 38.8008 331.516 36.7852 331.516 34.4883C331.516 32.2852 332.008 30.3047 332.992 28.5469C333.977 26.7656 335.348 25.2539 337.105 24.0117C338.887 22.7461 340.973 21.7852 343.363 21.1289C345.754 20.4492 348.367 20.1094 351.203 20.1094C354.953 20.1094 358.258 20.7656 361.117 22.0781C364 23.3672 366.25 25.207 367.867 27.5977C369.508 29.9648 370.328 32.7656 370.328 36H358.059C358.059 34.7109 357.789 33.5742 357.25 32.5898C356.734 31.6055 355.949 30.832 354.895 30.2695C353.84 29.707 352.516 29.4258 350.922 29.4258C349.375 29.4258 348.074 29.6602 347.02 30.1289C345.965 30.5977 345.168 31.2305 344.629 32.0273C344.09 32.8008 343.82 33.6562 343.82 34.5938C343.82 35.3672 344.031 36.0703 344.453 36.7031C344.898 37.3125 345.52 37.8867 346.316 38.4258C347.137 38.9648 348.121 39.4805 349.27 39.9727C350.441 40.4648 351.754 40.9453 353.207 41.4141C355.926 42.2812 358.34 43.2539 360.449 44.332C362.582 45.3867 364.375 46.5938 365.828 47.9531C367.305 49.2891 368.418 50.8125 369.168 52.5234C369.941 54.2344 370.328 56.168 370.328 58.3242C370.328 60.6211 369.883 62.6602 368.992 64.4414C368.102 66.2227 366.824 67.7344 365.16 68.9766C363.496 70.1953 361.504 71.1211 359.184 71.7539C356.863 72.3867 354.273 72.7031 351.414 72.7031C348.789 72.7031 346.199 72.375 343.645 71.7188C341.113 71.0391 338.816 70.0078 336.754 68.625C334.691 67.2188 333.039 65.4258 331.797 63.2461C330.578 61.043 329.969 58.4297 329.969 55.4062H342.344C342.344 56.9062 342.543 58.1719 342.941 59.2031C343.34 60.2344 343.926 61.0664 344.699 61.6992C345.473 62.3086 346.422 62.7539 347.547 63.0352C348.672 63.293 349.961 63.4219 351.414 63.4219C352.984 63.4219 354.25 63.1992 355.211 62.7539C356.172 62.2852 356.875 61.6758 357.32 60.9258C357.766 60.1523 357.988 59.3086 357.988 58.3945ZM387.801 67.5352L397.645 33.9609H410.371L395.078 77.6602C394.75 78.6211 394.316 79.6523 393.777 80.7539C393.238 81.8789 392.5 82.9453 391.562 83.9531C390.625 84.9609 389.418 85.7812 387.941 86.4141C386.488 87.0469 384.684 87.3633 382.527 87.3633C381.379 87.3633 380.535 87.3047 379.996 87.1875C379.48 87.0938 378.684 86.918 377.605 86.6602V78.1875C377.91 78.1875 378.168 78.1875 378.379 78.1875C378.613 78.1875 378.871 78.1875 379.152 78.1875C380.418 78.1875 381.426 78.0586 382.176 77.8008C382.949 77.543 383.535 77.168 383.934 76.6758C384.355 76.1836 384.684 75.5859 384.918 74.8828L387.801 67.5352ZM385.305 33.9609L392.793 60.5742L394.094 73.125H386.148L372.613 33.9609H385.305ZM425.102 42.082V72H413.254V33.9609H424.363L425.102 42.082ZM423.695 51.6797L420.918 51.75C420.918 48.8438 421.27 46.2539 421.973 43.9805C422.676 41.6836 423.672 39.7383 424.961 38.1445C426.25 36.5508 427.785 35.3438 429.566 34.5234C431.371 33.6797 433.375 33.2578 435.578 33.2578C437.336 33.2578 438.941 33.5156 440.395 34.0312C441.871 34.5469 443.137 35.3789 444.191 36.5273C445.27 37.6758 446.09 39.1992 446.652 41.0977C447.238 42.9727 447.531 45.293 447.531 48.0586V72H435.613V48.0234C435.613 46.5 435.402 45.3398 434.98 44.543C434.559 43.7227 433.949 43.1602 433.152 42.8555C432.355 42.5508 431.383 42.3984 430.234 42.3984C429.016 42.3984 427.984 42.6328 427.141 43.1016C426.297 43.5703 425.617 44.2266 425.102 45.0703C424.609 45.8906 424.246 46.8633 424.012 47.9883C423.801 49.1133 423.695 50.3438 423.695 51.6797ZM470.172 63.5625C471.273 63.5625 472.211 63.3633 472.984 62.9648C473.781 62.543 474.379 61.957 474.777 61.207C475.199 60.4336 475.398 59.5078 475.375 58.4297H486.52C486.543 61.2891 485.84 63.7969 484.41 65.9531C483.004 68.0859 481.082 69.75 478.645 70.9453C476.23 72.1172 473.5 72.7031 470.453 72.7031C467.477 72.7031 464.875 72.2227 462.648 71.2617C460.422 70.2773 458.559 68.918 457.059 67.1836C455.582 65.4258 454.469 63.375 453.719 61.0312C452.992 58.6875 452.629 56.1445 452.629 53.4023V52.5938C452.629 49.8516 452.992 47.3086 453.719 44.9648C454.469 42.5977 455.582 40.5469 457.059 38.8125C458.559 37.0547 460.41 35.6953 462.613 34.7344C464.84 33.75 467.43 33.2578 470.383 33.2578C473.547 33.2578 476.336 33.8555 478.75 35.0508C481.188 36.2461 483.098 37.9805 484.48 40.2539C485.863 42.5273 486.543 45.2812 486.52 48.5156H475.375C475.398 47.3672 475.223 46.3359 474.848 45.4219C474.473 44.5078 473.887 43.7812 473.09 43.2422C472.316 42.6797 471.32 42.3984 470.102 42.3984C468.883 42.3984 467.898 42.668 467.148 43.207C466.398 43.7461 465.824 44.4961 465.426 45.457C465.051 46.3945 464.793 47.4727 464.652 48.6914C464.535 49.9102 464.477 51.2109 464.477 52.5938V53.4023C464.477 54.8086 464.535 56.1328 464.652 57.375C464.793 58.5938 465.062 59.6719 465.461 60.6094C465.859 61.5234 466.434 62.25 467.184 62.7891C467.934 63.3047 468.93 63.5625 470.172 63.5625Z" fill="#FC6868"/>
</svg>
