<svg width="661" height="125" viewBox="0 0 661 125" fill="none" xmlns="http://www.w3.org/2000/svg">
<path d="M426.723 50.0212C426.723 43.816 420.688 37.2258 410.243 37.2258C398.514 37.2258 385.63 45.8274 383.661 62.9877C381.649 80.3192 392.436 88.0221 403.309 88.0221C414.181 88.0221 419.874 83.7855 425.696 78.1367C420.688 71.846 414.224 74.756 412.983 75.3979C411.613 76.0826 409.858 77.0241 406.262 77.0241C402.067 77.0241 397.787 75.1412 397.787 67.3099C424.669 64.6567 426.723 56.2263 426.723 50.0212ZM413.411 51.0482C413.24 52.9739 412.469 56.2691 398.857 58.1092C401.725 47.9243 407.204 47.154 409.729 47.154C412.084 47.154 413.582 48.9941 413.411 51.0482ZM367.865 52.7172C367.865 52.7172 362.086 70.8618 361.616 72.3596C361.444 70.819 357.207 38.2528 357.207 38.2528C347.361 38.2528 342.096 45.271 339.314 52.6744C339.314 52.6744 332.294 70.8618 331.694 72.4024C331.651 70.9902 330.624 52.8883 330.624 52.8883C330.025 43.816 321.721 38.2956 315 38.2956L323.133 87.637C333.449 87.5942 339.014 80.6188 341.925 73.2154C341.925 73.2154 348.132 57.1677 348.389 56.4402C348.431 57.1249 352.84 87.637 352.84 87.637C363.199 87.637 368.764 81.0895 371.761 73.9429L386.272 38.2956C376.041 38.2956 370.648 45.271 367.865 52.7172ZM464.735 37.1402C458.357 37.1402 453.477 40.6065 449.368 45.699V45.6562L453.049 16C444.573 16 437.682 23.3606 436.355 34.3158L429.934 87.2518C434.814 87.2518 439.993 85.8396 442.776 82.245C445.258 85.4545 448.982 88.0221 454.504 88.0221C468.802 88.0221 478.604 71.4181 478.604 55.8411C478.519 41.6335 471.627 37.1402 464.735 37.1402ZM463.408 62.6026C461.91 71.2897 457.073 77.1953 452.407 77.1953C447.698 77.1953 445.686 75.0984 445.686 75.0984C446.585 67.4811 447.142 62.8165 448.854 58.7939C450.566 54.7713 454.633 48.3522 458.871 48.3522C463.023 48.3522 464.906 53.8726 463.408 62.6026ZM514.304 38.2956H504.33L504.373 37.7821C505.058 31.2774 506.599 27.8539 511.693 27.2976C515.16 26.9552 516.701 25.1579 517.087 23.1894C517.386 21.6488 518.328 16.2996 518.328 16.2996C498.295 16.1712 492.002 24.8155 490.376 37.9961L490.333 38.2956H490.119C486.866 38.2956 483.27 41.9759 482.671 46.6404L482.457 48.3522H489.134L483.527 94.6552L481.815 102.957C482.029 102.957 482.285 103 482.499 103C491.874 102.658 497.867 95.2543 499.194 84.513L503.56 48.3522H506.685C509.767 48.3522 513.362 45.271 514.005 40.1358L514.304 38.2956ZM566.185 37.4397C554.67 37.4397 543.797 45.9129 540.459 59.2218C537.12 72.5307 542.171 88.2789 559.122 88.2789C576.03 88.2789 585.79 71.8888 585.79 58.2376C585.79 44.6719 576.587 37.4397 566.185 37.4397ZM570.851 62.1746C570.252 68.2086 567.598 77.3664 560.321 77.3664C553.001 77.3664 554.028 66.668 554.756 61.5755C555.526 56.1407 558.566 48.395 565.115 48.395C570.979 48.395 571.536 55.3704 570.851 62.1746ZM642.679 52.7172C642.679 52.7172 636.9 70.8618 636.429 72.3596C636.258 70.819 632.02 38.2528 632.02 38.2528C622.175 38.2528 616.91 45.271 614.128 52.6744C614.128 52.6744 607.107 70.8618 606.508 72.4024C606.465 70.9902 605.438 52.8883 605.438 52.8883C604.839 43.816 596.534 38.2956 589.814 38.2956L597.904 87.637C608.22 87.5942 613.785 80.6188 616.696 73.2154C616.696 73.2154 622.903 57.1677 623.117 56.4402C623.202 57.1249 627.569 87.637 627.569 87.637C637.928 87.637 643.492 81.0895 646.489 73.9429L661 38.2956C650.812 38.2956 645.419 45.271 642.679 52.7172ZM523.722 16.2996L515.332 83.9567L513.619 92.3015C513.833 92.3015 514.09 92.3443 514.304 92.3443C523.336 92.2159 529.757 84.2991 530.956 74.3281L535.793 35.514C537.248 23.6601 530.185 16.2996 523.722 16.2996Z" fill="black"/>
<path d="M48.7393 32.3452H87.6982V35.4268H52.3105V58.6202H85.5879V61.7018H52.3105V87.1659H88.104V90.2475H48.7393V32.3452ZM91.1883 32.3452H95.3277L113.671 57.8092L132.42 32.3452L157.922 0L116.025 60.4854L137.614 90.2475H133.313L113.671 63.1616L93.9479 90.2475H89.7273L111.479 60.4854L91.1883 32.3452ZM139.157 35.4268V32.3452H183.553V35.4268H163.1V90.2475H159.529V35.4268H139.157Z" fill="black"/>
<path d="M0 32.3452H4.46405L66.0207 124.016L40.5823 90.2475L3.73357 36.7244L3.57124 90.2475H0V32.3452Z" fill="black"/>
<path d="M183.194 86.2359C183.932 86.2359 184.471 85.6733 184.471 84.9462C184.471 84.2192 183.932 83.6565 183.194 83.6565C182.464 83.6565 181.917 84.2192 181.917 84.9462C181.917 85.6733 182.464 86.2359 183.194 86.2359ZM186.703 82.8429C186.703 84.9895 188.258 86.3917 190.525 86.3917C192.939 86.3917 194.399 84.9462 194.399 82.4361V73.5987H192.453V82.4274C192.453 83.821 191.749 84.5654 190.507 84.5654C189.396 84.5654 188.64 83.8729 188.614 82.8429H186.703ZM196.944 82.7304C197.083 84.9635 198.95 86.3917 201.73 86.3917C204.7 86.3917 206.559 84.8943 206.559 82.5053C206.559 80.6271 205.5 79.5884 202.928 78.9912L201.547 78.6536C199.914 78.2727 199.254 77.7621 199.254 76.8705C199.254 75.7453 200.279 75.0096 201.817 75.0096C203.276 75.0096 204.283 75.728 204.466 76.8792H206.359C206.247 74.7759 204.388 73.2958 201.843 73.2958C199.107 73.2958 197.282 74.7759 197.282 77.0004C197.282 78.8354 198.316 79.926 200.583 80.454L202.199 80.8435C203.858 81.233 204.587 81.8042 204.587 82.7564C204.587 83.8643 203.441 84.6692 201.877 84.6692C200.201 84.6692 199.037 83.9162 198.872 82.7304H196.944Z" fill="black"/>
<path d="M269.905 79.1572H257.908V67.1602H245.428V55.207H257.908V42.2432H269.905V55.207H282.342V67.1602H269.905V79.1572Z" fill="#FC6868"/>
</svg>
